<svg id="Layer_1" data-name="Layer 1" xmlns="http://www.w3.org/2000/svg" viewBox="0 0 720 544.59">
  <defs>
    <style>
      .cls-1 {
        fill: #002549;
      }
    </style>
  </defs>
  <title>logos</title>
  <g>
    <g>
      <polygon class="cls-1" points="160.92 216.01 117.01 114.75 0.05 108.01 46.89 216.01 160.92 216.01"/>
      <polygon class="cls-1" points="68.34 265.46 189.39 544.59 285.37 502.96 182.37 265.46 68.34 265.46"/>
    </g>
    <g>
      <polygon class="cls-1" points="359.3 216.01 305.05 90.92 184.52 75.94 245.27 216.01 359.3 216.01"/>
      <polygon class="cls-1" points="266.72 265.46 355.65 470.54 451.63 428.91 380.75 265.46 266.72 265.46"/>
    </g>
    <g>
      <polygon class="cls-1" points="522.19 216.01 541.08 172.45 559.97 216.01 674.01 216.01 580.33 0 490.9 38.78 408.37 216.01 522.19 216.01"/>
      <polygon class="cls-1" points="581.42 265.46 624.02 363.69 720 322.06 695.45 265.46 581.42 265.46"/>
    </g>
  </g>
</svg>
