<svg id="Layer_1" data-name="Layer 1" xmlns="http://www.w3.org/2000/svg" viewBox="0 0 720 720">
  <defs>
    <style>
      .cls-1 {
        fill: #002549;
      }
    </style>
  </defs>
  <title>WA</title>
  <g>
    <g>
      <polygon class="cls-1" points="209.82 316.23 176.69 239.85 88.47 234.76 123.8 316.23 209.82 316.23"/>
      <polygon class="cls-1" points="139.98 353.53 231.29 564.08 303.69 532.68 225.99 353.53 139.98 353.53"/>
    </g>
    <g>
      <polygon class="cls-1" points="359.46 316.23 318.54 221.88 227.62 210.57 273.44 316.23 359.46 316.23"/>
      <polygon class="cls-1" points="289.62 353.53 356.7 508.22 429.1 476.82 375.63 353.53 289.62 353.53"/>
    </g>
    <g>
      <polygon class="cls-1" points="482.32 316.23 496.57 283.38 510.82 316.23 596.84 316.23 526.17 153.29 458.72 182.55 396.46 316.23 482.32 316.23"/>
      <polygon class="cls-1" points="527 353.53 559.13 427.63 631.53 396.23 613.02 353.53 527 353.53"/>
    </g>
  </g>
</svg>
